<?xml version="1.0" standalone="no"?><!DOCTYPE svg PUBLIC "-//W3C//DTD SVG 1.1//EN" "http://www.w3.org/Graphics/SVG/1.1/DTD/svg11.dtd"><svg t="1583381836365" class="icon" viewBox="0 0 1024 1024" version="1.1" xmlns="http://www.w3.org/2000/svg" p-id="2053" xmlns:xlink="http://www.w3.org/1999/xlink" width="200" height="200"><defs><style type="text/css"></style></defs><path d="M935.563636 1024H88.436364c-27.927273 0-48.872727-20.945455-48.872728-48.872727V307.2c0-27.927273 20.945455-48.872727 48.872728-48.872727h102.4c2.327273 0 2.327273 0 2.327272-2.327273V48.872727C193.163636 20.945455 214.109091 0 242.036364 0h693.527272c27.927273 0 48.872727 20.945455 48.872728 48.872727v926.254546c0 27.927273-20.945455 48.872727-48.872728 48.872727zM88.436364 304.872727c-2.327273 0-2.327273 0-2.327273 2.327273v667.927273c0 2.327273 0 2.327273 2.327273 2.327272h849.454545c2.327273 0 2.327273 0 2.327273-2.327272V48.872727c0-2.327273 0-2.327273-2.327273-2.327272H242.036364c-2.327273 0-2.327273 0-2.327273 2.327272v204.8c0 27.927273-20.945455 48.872727-48.872727 48.872728H88.436364z" p-id="2054"></path><path d="M216.436364 882.036364c-13.963636 0-23.272727-9.309091-23.272728-23.272728V267.636364c0-13.963636 9.309091-23.272727 23.272728-23.272728s23.272727 9.309091 23.272727 23.272728v591.127272c0 13.963636-11.636364 23.272727-23.272727 23.272728zM833.163636 605.090909h-488.727272c-13.963636 0-23.272727-9.309091-23.272728-23.272727s9.309091-23.272727 23.272728-23.272727h488.727272c13.963636 0 23.272727 9.309091 23.272728 23.272727s-9.309091 23.272727-23.272728 23.272727zM833.163636 744.727273h-488.727272c-13.963636 0-23.272727-9.309091-23.272728-23.272728s9.309091-23.272727 23.272728-23.272727h488.727272c13.963636 0 23.272727 9.309091 23.272728 23.272727s-9.309091 23.272727-23.272728 23.272728zM833.163636 188.509091H698.181818c-13.963636 0-23.272727-9.309091-23.272727-23.272727s9.309091-23.272727 23.272727-23.272728h134.981818c13.963636 0 23.272727 9.309091 23.272728 23.272728s-9.309091 23.272727-23.272728 23.272727zM833.163636 325.818182H698.181818c-13.963636 0-23.272727-9.309091-23.272727-23.272727s9.309091-23.272727 23.272727-23.272728h134.981818c13.963636 0 23.272727 9.309091 23.272728 23.272728s-9.309091 23.272727-23.272728 23.272727zM833.163636 465.454545H698.181818c-13.963636 0-23.272727-9.309091-23.272727-23.272727s9.309091-23.272727 23.272727-23.272727h134.981818c13.963636 0 23.272727 9.309091 23.272728 23.272727s-9.309091 23.272727-23.272728 23.272727zM472.436364 186.181818c39.563636 0 69.818182 30.254545 69.818181 69.818182v102.4c0 39.563636-30.254545 69.818182-69.818181 69.818182h-25.6c-39.563636 0-69.818182-30.254545-69.818182-69.818182V256c0-39.563636 30.254545-69.818182 69.818182-69.818182h25.6m0-46.545454h-25.6c-62.836364 0-116.363636 51.2-116.363637 116.363636v102.4c0 62.836364 51.2 116.363636 116.363637 116.363636h25.6c62.836364 0 116.363636-51.2 116.363636-116.363636V256c0-65.163636-51.2-116.363636-116.363636-116.363636z" p-id="2055"></path></svg>