<?xml version="1.0" standalone="no"?><!DOCTYPE svg PUBLIC "-//W3C//DTD SVG 1.1//EN" "http://www.w3.org/Graphics/SVG/1.1/DTD/svg11.dtd"><svg t="1583381768370" class="icon" viewBox="0 0 1025 1024" version="1.1" xmlns="http://www.w3.org/2000/svg" p-id="1230" xmlns:xlink="http://www.w3.org/1999/xlink" width="200.1953125" height="200"><defs><style type="text/css"></style></defs><path d="M768.111034 960.551972c-54.20713 0-110.731135-17.816616-141.181072-27.446389-59.085464-18.881928-198.890123-111.419853-321.690711-228.216416-140.553755-133.615406-205.455971-299.497205-226.902427-364.651166-27.699158-84.534263-13.06927-123.175136-2.313806-151.438162l2.62593-6.875924c14.134583-39.14027 41.014033-66.589728 95.790148-98.040506 22.946696-13.253474 43.515113-19.693449 62.837085-19.693449 24.694586 0 40.576037 10.440271 50.080961 16.756419 20.881565 11.503537 87.907242 68.339666 112.922139 127.86415 33.137268 79.471725-1.001865 120.301554-12.25775 130.927052-5.313261 5.004207-10.127124 9.877425-14.633981 14.505038-10.25095 10.443341-19.506175 19.636141-29.509473 26.699339-1.24747 1.190162-3.060856 4.940759-1.750961 22.323472 5.624361 16.753349 73.151483 94.725859 106.106593 128.052447 132.926688 135.927166 165.628006 146.430885 168.938561 147.182027 20.075161 4.565188 30.078459-0.873945 33.392083-4.438292l4.312419-5.125987c7.878812-9.696291 22.633549-27.765676 39.390992-41.769269 17.507562-14.505038 42.89189-17.566917 61.148548-17.566917 9.130376 0 40.331455 0.997771 58.024245 13.565598 2.248312 1.560617 7.003844 4.129239 13.131695 7.500171 26.631798 14.823301 76.149914 42.26969 105.164083 77.22239 42.766017 51.396996 27.263208 127.865173 4.940759 150.685996-2.191004 2.313806-3.814045 4.37382-5.815728 6.878994-7.940214 9.878449-18.761172 23.381622-60.401499 61.272374C845.704902 949.175332 811.316071 960.551972 768.111034 960.551972zM237.277203 123.772775c-5.815728 0-16.195621 2.001683-32.953064 11.629409-52.769315 30.388535-63.273034 49.58668-69.526758 66.717648l-2.874605 7.814341c-8.815182 23.195371-17.945558 47.206356 3.187752 111.794402 20.008643 60.774 80.654724 215.776509 211.392455 340.075289 121.550047 115.614587 253.728663 200.27063 298.557765 214.528015 27.261161 8.626885 78.095312 24.699703 123.049263 24.699703 27.824007 0 48.707618-6.192323 62.086965-18.32113 38.137381-34.705048 47.643329-46.582109 53.961524-54.39952 3.186728-3.998249 5.936484-7.312897 9.623633-11.125919 3.566393-6.065427 12.75817-46.269986-8.061993-71.283859-21.884453-26.383123-65.030135-50.331683-88.157964-63.147161-8.757875-4.876288-15.322699-8.627908-18.637346-11.002093-1.001865-0.253792-10.442317-2.568622-23.509541-2.568622-14.255339 0-21.510928 2.816274-23.008097 3.817115-12.128807 10.127124-24.509359 25.382281-31.135585 33.512839l-6.193346 7.252519c-21.817935 23.886136-52.830717 31.511156-91.22189 22.82287-13.507266-3.063926-49.26944-11.254861-195.3268-160.565468-7.753963-7.944307-122.802634-124.738823-125.987316-168.320454-2.129602-27.948856-0.315193-56.461581 26.946991-75.469382 7.12767-5.004207 13.628022-12.003958 21.13331-19.631024 5.063562-5.128033 10.377846-10.506789 16.254975-16.130126 8.38128-7.878812 12.87995-29.51152-1.748914-64.77839-17.759308-42.390446-71.654314-89.786123-82.280835-95.914998-2.503127-1.312965-5.315307-3.124304-8.38128-5.124963C247.592625 126.152076 243.716155 123.772775 237.277203 123.772775z" p-id="1231"></path></svg>